<mxfile host="app.diagrams.net" modified="2023-02-16T08:12:34.105Z" agent="5.0 (Windows NT 10.0; Win64; x64) AppleWebKit/537.36 (KHTML, like Gecko) Chrome/104.0.0.0 Safari/537.36" etag="PFUmfMS0RJH40j2bQdz_" version="20.8.17" type="github">
  <diagram name="第 1 页" id="NdxWEblajsbIT6LDi7Qz">
    <mxGraphModel dx="1434" dy="764" grid="1" gridSize="10" guides="1" tooltips="1" connect="1" arrows="1" fold="1" page="1" pageScale="1" pageWidth="827" pageHeight="1169" math="0" shadow="0">
      <root>
        <mxCell id="0" />
        <mxCell id="1" parent="0" />
        <mxCell id="Gx4qkYqsBj971IWDEv4H-24" value="" style="endArrow=none;html=1;rounded=0;" edge="1" parent="1">
          <mxGeometry width="50" height="50" relative="1" as="geometry">
            <mxPoint x="559" y="621" as="sourcePoint" />
            <mxPoint x="339" y="496" as="targetPoint" />
          </mxGeometry>
        </mxCell>
        <mxCell id="Gx4qkYqsBj971IWDEv4H-1" value="" style="fontColor=#0066CC;verticalAlign=top;verticalLabelPosition=bottom;labelPosition=center;align=center;html=1;outlineConnect=0;fillColor=#CCCCCC;strokeColor=#6881B3;gradientColor=none;gradientDirection=north;strokeWidth=2;shape=mxgraph.networks.satellite;rotation=0;" vertex="1" parent="1">
          <mxGeometry x="500" y="30" width="100" height="100" as="geometry" />
        </mxCell>
        <mxCell id="Gx4qkYqsBj971IWDEv4H-2" value="" style="fontColor=#0066CC;verticalAlign=top;verticalLabelPosition=bottom;labelPosition=center;align=center;html=1;outlineConnect=0;fillColor=#CCCCCC;strokeColor=#6881B3;gradientColor=none;gradientDirection=north;strokeWidth=2;shape=mxgraph.networks.radio_tower;" vertex="1" parent="1">
          <mxGeometry x="301.25" y="130" width="70" height="120" as="geometry" />
        </mxCell>
        <mxCell id="Gx4qkYqsBj971IWDEv4H-3" value="" style="html=1;outlineConnect=0;fillColor=#CCCCCC;strokeColor=#6881B3;gradientColor=none;gradientDirection=north;strokeWidth=2;shape=mxgraph.networks.cloud;fontColor=#ffffff;" vertex="1" parent="1">
          <mxGeometry x="102.75" y="120" width="90" height="50" as="geometry" />
        </mxCell>
        <mxCell id="Gx4qkYqsBj971IWDEv4H-6" value="" style="fontColor=#0066CC;verticalAlign=top;verticalLabelPosition=bottom;labelPosition=center;align=center;html=1;outlineConnect=0;fillColor=default;strokeColor=#6881B3;gradientColor=none;gradientDirection=north;strokeWidth=2;shape=mxgraph.networks.radio_tower;fillStyle=auto;" vertex="1" parent="1">
          <mxGeometry x="371.25" y="470" width="35.5" height="71" as="geometry" />
        </mxCell>
        <mxCell id="Gx4qkYqsBj971IWDEv4H-5" value="" style="fontColor=#0066CC;verticalAlign=top;verticalLabelPosition=bottom;labelPosition=center;align=center;html=1;outlineConnect=0;fillColor=#CCCCCC;strokeColor=#6881B3;gradientColor=none;gradientDirection=north;strokeWidth=2;shape=mxgraph.networks.supercomputer;fillStyle=auto;" vertex="1" parent="1">
          <mxGeometry x="364" y="499" width="50" height="61" as="geometry" />
        </mxCell>
        <mxCell id="Gx4qkYqsBj971IWDEv4H-10" value="" style="endArrow=none;html=1;rounded=0;" edge="1" parent="1">
          <mxGeometry width="50" height="50" relative="1" as="geometry">
            <mxPoint x="310" y="350" as="sourcePoint" />
            <mxPoint x="530" y="160" as="targetPoint" />
          </mxGeometry>
        </mxCell>
        <mxCell id="Gx4qkYqsBj971IWDEv4H-11" value="" style="endArrow=none;html=1;rounded=0;" edge="1" parent="1">
          <mxGeometry width="50" height="50" relative="1" as="geometry">
            <mxPoint x="311" y="350" as="sourcePoint" />
            <mxPoint x="91" y="225" as="targetPoint" />
          </mxGeometry>
        </mxCell>
        <mxCell id="Gx4qkYqsBj971IWDEv4H-12" value="" style="endArrow=none;html=1;rounded=0;" edge="1" parent="1">
          <mxGeometry width="50" height="50" relative="1" as="geometry">
            <mxPoint x="220" y="428" as="sourcePoint" />
            <mxPoint y="303" as="targetPoint" />
          </mxGeometry>
        </mxCell>
        <mxCell id="Gx4qkYqsBj971IWDEv4H-13" value="" style="endArrow=none;html=1;rounded=0;" edge="1" parent="1">
          <mxGeometry width="50" height="50" relative="1" as="geometry">
            <mxPoint y="618" as="sourcePoint" />
            <mxPoint x="220" y="428" as="targetPoint" />
          </mxGeometry>
        </mxCell>
        <mxCell id="Gx4qkYqsBj971IWDEv4H-14" value="" style="endArrow=none;html=1;rounded=0;" edge="1" parent="1">
          <mxGeometry width="50" height="50" relative="1" as="geometry">
            <mxPoint x="430" y="418" as="sourcePoint" />
            <mxPoint x="650" y="228" as="targetPoint" />
          </mxGeometry>
        </mxCell>
        <mxCell id="Gx4qkYqsBj971IWDEv4H-15" value="" style="endArrow=none;html=1;rounded=0;" edge="1" parent="1">
          <mxGeometry width="50" height="50" relative="1" as="geometry">
            <mxPoint x="650" y="543" as="sourcePoint" />
            <mxPoint x="430" y="418" as="targetPoint" />
          </mxGeometry>
        </mxCell>
        <mxCell id="Gx4qkYqsBj971IWDEv4H-25" value="" style="endArrow=none;html=1;rounded=0;" edge="1" parent="1">
          <mxGeometry width="50" height="50" relative="1" as="geometry">
            <mxPoint x="119" y="690" as="sourcePoint" />
            <mxPoint x="339" y="496" as="targetPoint" />
          </mxGeometry>
        </mxCell>
        <mxCell id="Gx4qkYqsBj971IWDEv4H-26" value="" style="fontColor=#0066CC;verticalAlign=top;verticalLabelPosition=bottom;labelPosition=center;align=center;html=1;outlineConnect=0;fillColor=default;strokeColor=#6881B3;gradientColor=none;gradientDirection=north;strokeWidth=2;shape=mxgraph.networks.radio_tower;fillStyle=auto;" vertex="1" parent="1">
          <mxGeometry x="67.25" y="430" width="35.5" height="71" as="geometry" />
        </mxCell>
        <mxCell id="Gx4qkYqsBj971IWDEv4H-27" value="" style="fontColor=#0066CC;verticalAlign=top;verticalLabelPosition=bottom;labelPosition=center;align=center;html=1;outlineConnect=0;fillColor=#CCCCCC;strokeColor=#6881B3;gradientColor=none;gradientDirection=north;strokeWidth=2;shape=mxgraph.networks.supercomputer;fillStyle=auto;" vertex="1" parent="1">
          <mxGeometry x="60" y="459" width="50" height="61" as="geometry" />
        </mxCell>
        <mxCell id="Gx4qkYqsBj971IWDEv4H-28" value="" style="fontColor=#0066CC;verticalAlign=top;verticalLabelPosition=bottom;labelPosition=center;align=center;html=1;outlineConnect=0;fillColor=default;strokeColor=#6881B3;gradientColor=none;gradientDirection=north;strokeWidth=2;shape=mxgraph.networks.radio_tower;fillStyle=auto;" vertex="1" parent="1">
          <mxGeometry x="537.25" y="260" width="35.5" height="71" as="geometry" />
        </mxCell>
        <mxCell id="Gx4qkYqsBj971IWDEv4H-29" value="" style="fontColor=#0066CC;verticalAlign=top;verticalLabelPosition=bottom;labelPosition=center;align=center;html=1;outlineConnect=0;fillColor=#CCCCCC;strokeColor=#6881B3;gradientColor=none;gradientDirection=north;strokeWidth=2;shape=mxgraph.networks.supercomputer;fillStyle=auto;" vertex="1" parent="1">
          <mxGeometry x="530" y="289" width="50" height="61" as="geometry" />
        </mxCell>
      </root>
    </mxGraphModel>
  </diagram>
</mxfile>
